<?xml version="1.0" encoding="UTF-8" standalone="no"?>
<svg
   xmlns:dc="http://purl.org/dc/elements/1.1/"
   xmlns:cc="http://creativecommons.org/ns#"
   xmlns:rdf="http://www.w3.org/1999/02/22-rdf-syntax-ns#"
   xmlns:svg="http://www.w3.org/2000/svg"
   xmlns="http://www.w3.org/2000/svg"
   xmlns:sodipodi="http://sodipodi.sourceforge.net/DTD/sodipodi-0.dtd"
   xmlns:inkscape="http://www.inkscape.org/namespaces/inkscape"
   width="41"
   height="40"
   viewBox="0 0 41 40"
   fill="none"
   version="1.1"
   id="svg4"
   sodipodi:docname="plus.svg"
   inkscape:version="1.0.2-2 (e86c870879, 2021-01-15)">
  <metadata
     id="metadata10">
    <rdf:RDF>
      <cc:Work
         rdf:about="">
        <dc:format>image/svg+xml</dc:format>
        <dc:type
           rdf:resource="http://purl.org/dc/dcmitype/StillImage" />
        <dc:title></dc:title>
      </cc:Work>
    </rdf:RDF>
  </metadata>
  <defs
     id="defs8" />
  <sodipodi:namedview
     pagecolor="#ffffff"
     bordercolor="#666666"
     borderopacity="1"
     objecttolerance="10"
     gridtolerance="10"
     guidetolerance="10"
     inkscape:pageopacity="0"
     inkscape:pageshadow="2"
     inkscape:window-width="1920"
     inkscape:window-height="1017"
     id="namedview6"
     showgrid="false"
     inkscape:zoom="8.1206795"
     inkscape:cx="24.109978"
     inkscape:cy="22.985396"
     inkscape:window-x="-8"
     inkscape:window-y="-8"
     inkscape:window-maximized="1"
     inkscape:current-layer="svg4" />
  <path
     d="m 20.5,12.5 c 0.24864,0 0.4871,0.09877 0.66291,0.274588 0.17582,0.175815 0.27459,0.414272 0.27459,0.662912 v 5.625 h 5.625 c 0.2486,0 0.4871,0.09877 0.6629,0.27459 C 27.9012,19.5129 28,19.75136 28,20 c 0,0.24864 -0.0988,0.4871 -0.2746,0.66291 -0.1758,0.17582 -0.4143,0.27459 -0.6629,0.27459 h -5.625 v 5.625 c 0,0.2486 -0.09877,0.4871 -0.27459,0.6629 C 20.9871,27.4012 20.74864,27.5 20.5,27.5 20.25136,27.5 20.0129,27.4012 19.83709,27.2254 19.66127,27.0496 19.5625,26.8111 19.5625,26.5625 v -5.625 h -5.625 c -0.24864,0 -0.487097,-0.09877 -0.662912,-0.27459 C 13.098772,20.4871 13,20.24864 13,20 c 0,-0.24864 0.09877,-0.4871 0.274588,-0.66291 0.175815,-0.17582 0.414272,-0.27459 0.662912,-0.27459 h 5.625 v -5.625 c 0,-0.24864 0.09877,-0.487097 0.27459,-0.662912 C 20.0129,12.598772 20.25136,12.5 20.5,12.5 Z"
     fill="#de8667"
     id="path2" />
</svg>
